<?xml version="1.0" encoding="utf-8"?>
<svg xmlns="http://www.w3.org/2000/svg" xmlns:xlink="http://www.w3.org/1999/xlink" style="margin: auto; background: none; display: block; shape-rendering: auto;" width="197px" height="197px" viewBox="0 0 100 100" preserveAspectRatio="xMidYMid">
<g transform="rotate(0 50 50)">
  <rect x="47" y="30" rx="0.8" ry="0.8" width="6" height="16" fill="#2d3542">
    <animate attributeName="opacity" values="1;0" keyTimes="0;1" dur="1s" begin="-0.9615384615384616s" repeatCount="indefinite"></animate>
  </rect>
</g><g transform="rotate(13.846153846153847 50 50)">
  <rect x="47" y="30" rx="0.8" ry="0.8" width="6" height="16" fill="#2d3542">
    <animate attributeName="opacity" values="1;0" keyTimes="0;1" dur="1s" begin="-0.9230769230769231s" repeatCount="indefinite"></animate>
  </rect>
</g><g transform="rotate(27.692307692307693 50 50)">
  <rect x="47" y="30" rx="0.8" ry="0.8" width="6" height="16" fill="#2d3542">
    <animate attributeName="opacity" values="1;0" keyTimes="0;1" dur="1s" begin="-0.8846153846153846s" repeatCount="indefinite"></animate>
  </rect>
</g><g transform="rotate(41.53846153846154 50 50)">
  <rect x="47" y="30" rx="0.8" ry="0.8" width="6" height="16" fill="#2d3542">
    <animate attributeName="opacity" values="1;0" keyTimes="0;1" dur="1s" begin="-0.8461538461538461s" repeatCount="indefinite"></animate>
  </rect>
</g><g transform="rotate(55.38461538461539 50 50)">
  <rect x="47" y="30" rx="0.8" ry="0.8" width="6" height="16" fill="#2d3542">
    <animate attributeName="opacity" values="1;0" keyTimes="0;1" dur="1s" begin="-0.8076923076923077s" repeatCount="indefinite"></animate>
  </rect>
</g><g transform="rotate(69.23076923076923 50 50)">
  <rect x="47" y="30" rx="0.8" ry="0.8" width="6" height="16" fill="#2d3542">
    <animate attributeName="opacity" values="1;0" keyTimes="0;1" dur="1s" begin="-0.7692307692307693s" repeatCount="indefinite"></animate>
  </rect>
</g><g transform="rotate(83.07692307692308 50 50)">
  <rect x="47" y="30" rx="0.8" ry="0.8" width="6" height="16" fill="#2d3542">
    <animate attributeName="opacity" values="1;0" keyTimes="0;1" dur="1s" begin="-0.7307692307692307s" repeatCount="indefinite"></animate>
  </rect>
</g><g transform="rotate(96.92307692307692 50 50)">
  <rect x="47" y="30" rx="0.8" ry="0.8" width="6" height="16" fill="#2d3542">
    <animate attributeName="opacity" values="1;0" keyTimes="0;1" dur="1s" begin="-0.6923076923076923s" repeatCount="indefinite"></animate>
  </rect>
</g><g transform="rotate(110.76923076923077 50 50)">
  <rect x="47" y="30" rx="0.8" ry="0.8" width="6" height="16" fill="#2d3542">
    <animate attributeName="opacity" values="1;0" keyTimes="0;1" dur="1s" begin="-0.6538461538461539s" repeatCount="indefinite"></animate>
  </rect>
</g><g transform="rotate(124.61538461538461 50 50)">
  <rect x="47" y="30" rx="0.8" ry="0.8" width="6" height="16" fill="#2d3542">
    <animate attributeName="opacity" values="1;0" keyTimes="0;1" dur="1s" begin="-0.6153846153846154s" repeatCount="indefinite"></animate>
  </rect>
</g><g transform="rotate(138.46153846153845 50 50)">
  <rect x="47" y="30" rx="0.8" ry="0.8" width="6" height="16" fill="#2d3542">
    <animate attributeName="opacity" values="1;0" keyTimes="0;1" dur="1s" begin="-0.5769230769230769s" repeatCount="indefinite"></animate>
  </rect>
</g><g transform="rotate(152.30769230769232 50 50)">
  <rect x="47" y="30" rx="0.8" ry="0.8" width="6" height="16" fill="#2d3542">
    <animate attributeName="opacity" values="1;0" keyTimes="0;1" dur="1s" begin="-0.5384615384615384s" repeatCount="indefinite"></animate>
  </rect>
</g><g transform="rotate(166.15384615384616 50 50)">
  <rect x="47" y="30" rx="0.8" ry="0.8" width="6" height="16" fill="#2d3542">
    <animate attributeName="opacity" values="1;0" keyTimes="0;1" dur="1s" begin="-0.5s" repeatCount="indefinite"></animate>
  </rect>
</g><g transform="rotate(180 50 50)">
  <rect x="47" y="30" rx="0.8" ry="0.8" width="6" height="16" fill="#2d3542">
    <animate attributeName="opacity" values="1;0" keyTimes="0;1" dur="1s" begin="-0.46153846153846156s" repeatCount="indefinite"></animate>
  </rect>
</g><g transform="rotate(193.84615384615384 50 50)">
  <rect x="47" y="30" rx="0.8" ry="0.8" width="6" height="16" fill="#2d3542">
    <animate attributeName="opacity" values="1;0" keyTimes="0;1" dur="1s" begin="-0.4230769230769231s" repeatCount="indefinite"></animate>
  </rect>
</g><g transform="rotate(207.69230769230768 50 50)">
  <rect x="47" y="30" rx="0.8" ry="0.8" width="6" height="16" fill="#2d3542">
    <animate attributeName="opacity" values="1;0" keyTimes="0;1" dur="1s" begin="-0.38461538461538464s" repeatCount="indefinite"></animate>
  </rect>
</g><g transform="rotate(221.53846153846155 50 50)">
  <rect x="47" y="30" rx="0.8" ry="0.8" width="6" height="16" fill="#2d3542">
    <animate attributeName="opacity" values="1;0" keyTimes="0;1" dur="1s" begin="-0.34615384615384615s" repeatCount="indefinite"></animate>
  </rect>
</g><g transform="rotate(235.3846153846154 50 50)">
  <rect x="47" y="30" rx="0.8" ry="0.8" width="6" height="16" fill="#2d3542">
    <animate attributeName="opacity" values="1;0" keyTimes="0;1" dur="1s" begin="-0.3076923076923077s" repeatCount="indefinite"></animate>
  </rect>
</g><g transform="rotate(249.23076923076923 50 50)">
  <rect x="47" y="30" rx="0.8" ry="0.8" width="6" height="16" fill="#2d3542">
    <animate attributeName="opacity" values="1;0" keyTimes="0;1" dur="1s" begin="-0.2692307692307692s" repeatCount="indefinite"></animate>
  </rect>
</g><g transform="rotate(263.0769230769231 50 50)">
  <rect x="47" y="30" rx="0.8" ry="0.8" width="6" height="16" fill="#2d3542">
    <animate attributeName="opacity" values="1;0" keyTimes="0;1" dur="1s" begin="-0.23076923076923078s" repeatCount="indefinite"></animate>
  </rect>
</g><g transform="rotate(276.9230769230769 50 50)">
  <rect x="47" y="30" rx="0.8" ry="0.8" width="6" height="16" fill="#2d3542">
    <animate attributeName="opacity" values="1;0" keyTimes="0;1" dur="1s" begin="-0.19230769230769232s" repeatCount="indefinite"></animate>
  </rect>
</g><g transform="rotate(290.7692307692308 50 50)">
  <rect x="47" y="30" rx="0.8" ry="0.8" width="6" height="16" fill="#2d3542">
    <animate attributeName="opacity" values="1;0" keyTimes="0;1" dur="1s" begin="-0.15384615384615385s" repeatCount="indefinite"></animate>
  </rect>
</g><g transform="rotate(304.61538461538464 50 50)">
  <rect x="47" y="30" rx="0.8" ry="0.8" width="6" height="16" fill="#2d3542">
    <animate attributeName="opacity" values="1;0" keyTimes="0;1" dur="1s" begin="-0.11538461538461539s" repeatCount="indefinite"></animate>
  </rect>
</g><g transform="rotate(318.46153846153845 50 50)">
  <rect x="47" y="30" rx="0.8" ry="0.8" width="6" height="16" fill="#2d3542">
    <animate attributeName="opacity" values="1;0" keyTimes="0;1" dur="1s" begin="-0.07692307692307693s" repeatCount="indefinite"></animate>
  </rect>
</g><g transform="rotate(332.3076923076923 50 50)">
  <rect x="47" y="30" rx="0.8" ry="0.8" width="6" height="16" fill="#2d3542">
    <animate attributeName="opacity" values="1;0" keyTimes="0;1" dur="1s" begin="-0.038461538461538464s" repeatCount="indefinite"></animate>
  </rect>
</g><g transform="rotate(346.15384615384613 50 50)">
  <rect x="47" y="30" rx="0.8" ry="0.8" width="6" height="16" fill="#2d3542">
    <animate attributeName="opacity" values="1;0" keyTimes="0;1" dur="1s" begin="0s" repeatCount="indefinite"></animate>
  </rect>
</g>
<!-- [ldio] generated by https://loading.io/ --></svg>